<svg width="160" height="229" viewBox="0 0 160 229" fill="none" xmlns="http://www.w3.org/2000/svg">
<path d="M0 39.5C0 33.9772 4.47715 29.5 10 29.5H150C155.523 29.5 160 33.9772 160 39.5V69.5C160 75.0228 155.523 79.5 150 79.5H10C4.47715 79.5 0 75.0228 0 69.5V39.5Z" fill="#E9EBF0"/>
<g clip-path="url(#clip0_73_1199)">
<path d="M40.5572 61.8298H38.8848V53.7461H40.5572V61.8298Z" fill="black"/>
<path d="M46.8531 56.1851C47.248 56.5103 47.4338 57.0446 47.4338 57.7879V61.8297H45.831V58.206C45.831 57.8808 45.7846 57.6485 45.7149 57.4859C45.5523 57.1839 45.2735 57.0213 44.8322 57.0213C44.2979 57.0213 43.9495 57.2536 43.7404 57.695C43.6475 57.9272 43.5778 58.2292 43.5778 58.6009V61.8529H42.0215V55.8599H43.5314V56.7426C43.7404 56.4406 43.9263 56.2083 44.0889 56.0689C44.4141 55.8366 44.809 55.6973 45.32 55.6973C45.9472 55.6973 46.4582 55.8599 46.8531 56.1851Z" fill="black"/>
<path d="M48.1992 57.0199V55.9049H49.0355V54.2324H50.5918V55.9049H51.5674V57.0199H50.5918V60.179C50.5918 60.4345 50.6151 60.5739 50.6847 60.6436C50.7544 60.7133 50.9402 60.7365 51.2654 60.7365C51.3119 60.7365 51.3584 60.7365 51.428 60.7365C51.4745 60.7365 51.5442 60.7365 51.5906 60.7365V61.898L50.8009 61.9212C50.0575 61.9445 49.5465 61.8283 49.291 61.5263C49.1052 61.3405 49.0355 61.0618 49.0355 60.6901V57.0199L48.1992 57.0199Z" fill="black"/>
<path d="M56.3768 55.9758C56.7949 56.1616 57.1434 56.4636 57.4221 56.8585C57.6776 57.2069 57.817 57.6251 57.9099 58.0896C57.9564 58.3684 57.9796 58.7633 57.9564 59.2743H53.5893C53.6126 59.8783 53.8216 60.2964 54.2165 60.5287C54.4488 60.6681 54.7508 60.761 55.076 60.761C55.4244 60.761 55.7264 60.6681 55.9355 60.4822C56.0516 60.3893 56.1677 60.2499 56.2607 60.0641H57.8635C57.817 60.4125 57.6312 60.7842 57.2827 61.1559C56.7485 61.7366 56.0051 62.0386 55.0295 62.0386C54.2397 62.0386 53.5196 61.7831 52.9157 61.2952C52.3117 60.8074 52.0098 59.9944 52.0098 58.9026C52.0098 57.8573 52.2885 57.0676 52.846 56.5101C53.4035 55.9526 54.1004 55.6738 54.9831 55.6738C55.4941 55.6971 55.9587 55.79 56.3768 55.9758ZM54.0307 57.3231C53.7984 57.5554 53.659 57.8573 53.6126 58.2522H56.3071C56.2839 57.8341 56.1445 57.5322 55.889 57.2999C55.6335 57.0908 55.3315 56.9747 54.9599 56.9747C54.565 56.9747 54.263 57.0908 54.0307 57.3231Z" fill="black"/>
<path d="M62.1829 55.7206C62.2061 55.7206 62.2526 55.7206 62.3222 55.7206V57.3234C62.2293 57.3234 62.1364 57.3001 62.0667 57.3001C61.997 57.3001 61.9273 57.3001 61.8809 57.3001C61.2537 57.3001 60.8356 57.5092 60.6033 57.9041C60.4871 58.1364 60.4175 58.4848 60.4175 58.9726V61.8298H58.8379V55.8599H60.3245V56.9053C60.5568 56.5104 60.7659 56.2316 60.9517 56.0922C61.2537 55.8367 61.6254 55.7206 62.0899 55.7206C62.1364 55.6973 62.1596 55.6973 62.1829 55.7206Z" fill="black"/>
<path d="M65.5982 58.2062C65.9002 58.1598 66.1093 58.1133 66.2254 58.0668C66.4577 57.9739 66.5738 57.8345 66.5738 57.6255C66.5738 57.37 66.4809 57.2074 66.3183 57.1144C66.1557 57.0215 65.9002 56.9751 65.5518 56.9751C65.1801 56.9751 64.9013 57.068 64.762 57.2538C64.6458 57.3932 64.5761 57.579 64.5297 57.8113H63.0198C63.0431 57.277 63.2056 56.8589 63.4612 56.5105C63.8793 55.9762 64.5994 55.7207 65.5982 55.7207C66.2486 55.7207 66.8526 55.8601 67.3636 56.1156C67.8747 56.3711 68.1302 56.8589 68.1302 57.579V60.32C68.1302 60.5059 68.1302 60.7382 68.1302 61.0169C68.1302 61.226 68.1766 61.3653 68.2231 61.435C68.2695 61.5047 68.3625 61.5744 68.4554 61.6209V61.8531H66.7597C66.7132 61.737 66.69 61.6209 66.6667 61.5047C66.6435 61.3886 66.6435 61.2724 66.6203 61.133C66.4112 61.3653 66.1557 61.5744 65.877 61.737C65.5285 61.9228 65.1569 62.039 64.7155 62.039C64.1813 62.039 63.7167 61.8764 63.3682 61.5744C63.0198 61.2724 62.834 60.8311 62.834 60.2503C62.834 59.507 63.1127 58.9728 63.6935 58.6476C64.0187 58.4617 64.46 58.3456 65.0872 58.2527L65.5982 58.2062ZM66.5506 58.9263C66.4577 58.996 66.3415 59.0424 66.2486 59.0889C66.1557 59.1353 66.0163 59.1586 65.8305 59.205L65.4821 59.2748C65.1569 59.3445 64.9013 59.4141 64.762 59.4838C64.5065 59.6232 64.3903 59.8555 64.3903 60.1574C64.3903 60.4362 64.46 60.622 64.6226 60.7382C64.762 60.8543 64.9478 60.924 65.1801 60.924C65.5285 60.924 65.8305 60.8311 66.1325 60.622C66.4112 60.413 66.5738 60.0645 66.5738 59.5303V58.9263L66.5506 58.9263Z" fill="black"/>
<path d="M73.0314 57.9969C73.0081 57.7646 72.9385 57.5788 72.7991 57.393C72.6132 57.1607 72.3577 57.0213 71.9861 57.0213C71.4518 57.0213 71.1034 57.2768 70.8943 57.8111C70.8014 58.0899 70.7317 58.4615 70.7317 58.9261C70.7317 59.3674 70.7781 59.7159 70.8943 59.9946C71.0801 60.4824 71.4286 60.7379 71.9628 60.7379C72.3345 60.7379 72.59 60.645 72.7526 60.436C72.9152 60.2269 73.0081 59.9714 73.0314 59.6694H74.6342C74.5877 60.1572 74.4251 60.5986 74.1231 61.0167C73.6353 61.6903 72.9152 62.0388 71.9396 62.0388C70.964 62.0388 70.2671 61.76 69.8025 61.1793C69.338 60.5986 69.1289 59.8553 69.1289 58.9493C69.1289 57.9273 69.3844 57.1142 69.8722 56.5567C70.3833 55.976 71.0569 55.6973 71.9628 55.6973C72.7062 55.6973 73.3333 55.8599 73.7979 56.2083C74.2625 56.5567 74.5645 57.1375 74.6574 57.9969H73.0314Z" fill="black"/>
<path d="M75.1445 57.0199V55.9049H75.9808V54.2324H77.5371V55.9049H78.5127V57.0199H77.5371V60.179C77.5371 60.4345 77.5603 60.5739 77.63 60.6436C77.6997 60.7133 77.8855 60.7365 78.2108 60.7365C78.2572 60.7365 78.3037 60.7365 78.3734 60.7365C78.4198 60.7365 78.4895 60.7365 78.536 60.7365V61.898L77.7694 61.9212C77.0261 61.9445 76.515 61.8283 76.2595 61.5263C76.0737 61.3405 76.004 61.0618 76.004 60.6901V57.0199L75.1445 57.0199Z" fill="black"/>
<path d="M81.138 55.1394H79.5584V53.6992H81.138V55.1394ZM79.5352 55.8595H81.1147V61.8526H79.5352V55.8595Z" fill="black"/>
<path d="M86.2253 55.8594H87.8978L85.7375 61.8524H84.0882L81.9512 55.8594H83.7166L84.9709 60.2729L86.2253 55.8594Z" fill="black"/>
<path d="M92.4745 55.9758C92.8926 56.1616 93.241 56.4636 93.5198 56.8585C93.7753 57.2069 93.9147 57.6251 94.0076 58.0896C94.054 58.3684 94.0773 58.7633 94.054 59.2743H89.687C89.7102 59.8783 89.9193 60.2964 90.3142 60.5287C90.5465 60.6681 90.8484 60.761 91.1736 60.761C91.5221 60.761 91.824 60.6681 92.0331 60.4822C92.1493 60.3893 92.2654 60.2499 92.3583 60.0641H93.9611C93.9147 60.4125 93.7288 60.7842 93.3804 61.1559C92.8461 61.7366 92.1028 62.0386 91.1272 62.0386C90.3374 62.0386 89.6173 61.7831 89.0133 61.2952C88.4094 60.8074 88.1074 59.9944 88.1074 58.9026C88.1074 57.8573 88.3862 57.0676 88.9437 56.5101C89.5012 55.9526 90.198 55.6738 91.0807 55.6738C91.5918 55.6971 92.0563 55.79 92.4745 55.9758ZM90.1283 57.3231C89.8961 57.5554 89.7567 57.8573 89.7102 58.2522H92.4048C92.3815 57.8341 92.2422 57.5322 91.9867 57.2999C91.7311 57.0908 91.4292 56.9747 91.0575 56.9747C90.6626 56.9747 90.3606 57.0908 90.1283 57.3231Z" fill="black"/>
<path d="M95.0758 53.7695H98.5601C99.5125 53.7695 100.186 54.0483 100.581 54.6058C100.813 54.931 100.929 55.3259 100.929 55.7672C100.929 56.2783 100.79 56.6964 100.488 57.0216C100.349 57.1842 100.116 57.3468 99.8377 57.4862C100.256 57.6488 100.558 57.8114 100.767 58.0204C101.139 58.3689 101.301 58.8567 101.301 59.4839C101.301 59.9949 101.139 60.4827 100.813 60.9008C100.325 61.528 99.5357 61.8532 98.4672 61.8532H95.0293V53.7695H95.0758ZM98.1652 57.1842C98.6298 57.1842 99.0014 57.1145 99.257 56.9984C99.6751 56.7893 99.8609 56.4409 99.8609 55.9066C99.8609 55.3723 99.6519 55.0239 99.2105 54.8381C98.955 54.7452 98.6065 54.6755 98.1187 54.6755H96.1443V57.1842H98.1652ZM98.5369 60.9008C99.2105 60.9008 99.6983 60.715 99.9771 60.3201C100.163 60.0646 100.256 59.7858 100.256 59.4374C100.256 58.8567 100 58.4618 99.466 58.2295C99.1873 58.1133 98.8156 58.0669 98.351 58.0669H96.1675V60.9008H98.5369Z" fill="black"/>
<path d="M102.51 55.9521H103.439V56.9742C103.509 56.7651 103.694 56.5328 103.996 56.2541C104.298 55.9753 104.647 55.8359 105.042 55.8359C105.065 55.8359 105.088 55.8359 105.135 55.8359C105.181 55.8359 105.251 55.8359 105.367 55.8592V56.9045C105.297 56.9045 105.251 56.8812 105.204 56.8812C105.158 56.8812 105.111 56.8812 105.042 56.8812C104.554 56.8812 104.159 57.0438 103.904 57.369C103.625 57.6943 103.509 58.0659 103.509 58.484V61.8755H102.51V55.9521Z" fill="black"/>
<path d="M110.431 56.5322C110.942 57.0432 111.221 57.7865 111.221 58.7622C111.221 59.7146 110.988 60.5043 110.524 61.1083C110.059 61.7355 109.362 62.0374 108.387 62.0374C107.574 62.0374 106.946 61.7587 106.482 61.2244C106.017 60.6669 105.762 59.9468 105.762 59.0177C105.762 58.0188 106.017 57.2523 106.505 56.6483C106.993 56.0676 107.666 55.7656 108.503 55.7656C109.269 55.7889 109.896 56.0444 110.431 56.5322ZM109.804 60.4579C110.036 59.9701 110.175 59.4126 110.175 58.8086C110.175 58.2511 110.082 57.8098 109.92 57.4614C109.641 56.9271 109.176 56.6483 108.503 56.6483C107.899 56.6483 107.481 56.8806 107.202 57.3452C106.923 57.8098 106.784 58.3673 106.784 59.0177C106.784 59.6449 106.923 60.1559 107.202 60.574C107.481 60.9921 107.899 61.2012 108.503 61.2012C109.13 61.2012 109.571 60.9457 109.804 60.4579Z" fill="black"/>
<path d="M112.312 53.7695H113.265V58.4618L115.797 55.9531H117.051L114.798 58.1366L117.191 61.83H115.936L114.078 58.8335L113.265 59.6232V61.83H112.312V53.7695Z" fill="black"/>
<path d="M121.302 56.1154C121.697 56.3012 121.999 56.5567 122.185 56.8819C122.371 57.1839 122.51 57.5323 122.58 57.9272C122.649 58.206 122.673 58.6241 122.673 59.228H118.398C118.422 59.832 118.561 60.2966 118.817 60.6682C119.072 61.0399 119.49 61.2025 120.024 61.2025C120.535 61.2025 120.954 61.0399 121.256 60.6915C121.418 60.4824 121.558 60.2733 121.627 59.9946H122.603C122.58 60.2037 122.487 60.4592 122.347 60.7147C122.208 60.9702 122.045 61.2025 121.86 61.3651C121.558 61.6671 121.186 61.8529 120.745 61.9691C120.512 62.0388 120.233 62.062 119.932 62.062C119.211 62.062 118.584 61.8065 118.073 61.2722C117.562 60.7379 117.307 59.9946 117.307 59.0422C117.307 58.0898 117.562 57.3233 118.073 56.7425C118.584 56.1618 119.258 55.8598 120.071 55.8598C120.512 55.8134 120.907 55.9296 121.302 56.1154ZM121.674 58.4383C121.627 58.0201 121.534 57.6717 121.395 57.4162C121.116 56.9284 120.675 56.6961 120.048 56.6961C119.606 56.6961 119.211 56.8587 118.909 57.1839C118.607 57.5091 118.445 57.9272 118.422 58.4383H121.674Z" fill="black"/>
<path d="M123.855 55.9521H124.785V56.9742C124.854 56.7651 125.04 56.5328 125.342 56.2541C125.644 55.9753 125.993 55.8359 126.387 55.8359C126.411 55.8359 126.434 55.8359 126.48 55.8359C126.527 55.8359 126.596 55.8359 126.713 55.8592V56.9045C126.643 56.9045 126.596 56.8812 126.55 56.8812C126.504 56.8812 126.457 56.8812 126.387 56.8812C125.9 56.8812 125.505 57.0438 125.249 57.369C124.97 57.6943 124.854 58.0659 124.854 58.484V61.8755H123.855V55.9521Z" fill="black"/>
<path d="M128.177 59.9937C128.201 60.3189 128.294 60.5744 128.433 60.7603C128.688 61.0855 129.13 61.2481 129.757 61.2481C130.129 61.2481 130.454 61.1784 130.756 61.0158C131.035 60.8532 131.174 60.6209 131.174 60.2725C131.174 60.0169 131.058 59.8311 130.826 59.6917C130.686 59.622 130.384 59.5291 129.966 59.413L129.176 59.2039C128.665 59.0878 128.294 58.9484 128.038 58.7858C127.597 58.5071 127.388 58.1586 127.388 57.6708C127.388 57.1133 127.597 56.672 127.992 56.3235C128.386 55.9751 128.944 55.8125 129.641 55.8125C130.547 55.8125 131.197 56.068 131.592 56.6023C131.848 56.9275 131.964 57.2992 131.964 57.6708H131.035C131.011 57.4385 130.942 57.2527 130.802 57.0669C130.57 56.8113 130.175 56.672 129.594 56.672C129.223 56.672 128.921 56.7417 128.735 56.881C128.549 57.0204 128.433 57.2062 128.433 57.4385C128.433 57.694 128.572 57.9031 128.828 58.0425C128.967 58.1354 129.199 58.2051 129.478 58.2748L130.152 58.4374C130.872 58.6 131.36 58.7858 131.615 58.9484C132.01 59.2039 132.196 59.5988 132.196 60.1331C132.196 60.6674 131.987 61.1087 131.592 61.4804C131.197 61.852 130.57 62.0611 129.757 62.0611C128.874 62.0611 128.247 61.852 127.875 61.4571C127.504 61.0622 127.318 60.5744 127.271 59.9705H128.177V59.9937Z" fill="black"/>
<path d="M27.8047 61.8295V54.582L34.4017 61.8295H27.8047Z" fill="url(#paint0_linear_73_1199)"/>
<path d="M33.4725 58.322C34.563 58.322 35.447 57.438 35.447 56.3475C35.447 55.257 34.563 54.373 33.4725 54.373C32.382 54.373 31.498 55.257 31.498 56.3475C31.498 57.438 32.382 58.322 33.4725 58.322Z" fill="#D81222"/>
<path d="M27.8047 54.5818V61.8292L34.4017 46.9395L27.8047 54.5818Z" fill="#D81222"/>
</g>
<path d="M0 99.5C0 93.9772 4.47715 89.5 10 89.5H150C155.523 89.5 160 93.9772 160 99.5V129.5C160 135.023 155.523 139.5 150 139.5H10C4.47715 139.5 0 135.023 0 129.5V99.5Z" fill="#E9EBF0"/>
<path d="M51.8744 104.593L50.8297 108.238H44.8053L44.1321 110.455H50.1333L49.1698 113.867H43.0758L41.323 120.008H35.4844L39.8953 104.593H51.8744ZM54.9156 120.008H49.1814L52.5361 108.249H58.2586L54.9156 120.008ZM59.3265 104.5L58.6069 106.996H52.8843L53.5924 104.5H59.3265ZM69.4136 120.008H63.9232L64.3643 118.499L64.3062 118.452C63.7912 119.074 63.1402 119.569 62.4036 119.899C61.667 120.229 60.8645 120.385 60.0578 120.356C58.4095 120.356 57.0514 119.602 57.0514 117.802C57.0514 116.154 58.247 112.533 58.9319 111.151C59.9418 109.12 61.3927 107.913 63.7491 107.913C65.1768 107.913 66.2099 108.412 66.7323 109.364L68.1136 104.5H73.8478L69.4136 120.008ZM63.575 113.589C63.3428 114.262 63.0526 115.086 63.0526 115.562C63.0526 116.05 63.4008 116.375 63.9812 116.375C64.7822 116.375 65.084 115.411 65.4438 114.367C65.7071 113.74 65.8829 113.08 65.9661 112.405C65.9661 111.906 65.6179 111.581 65.0375 111.581C64.2482 111.581 63.9464 112.556 63.575 113.589ZM77.3765 114.773C77.2256 115.295 77.0167 116.015 77.0167 116.537C77.0167 117.071 77.3185 117.35 77.8756 117.35C78.9784 117.35 79.2685 116.793 79.5587 115.817H85.1188C84.0161 119.311 80.3481 120.356 77.0399 120.356C73.871 120.356 71.6655 119.66 71.6655 116.816C71.6655 114.935 72.629 111.894 73.8478 110.466C75.5425 108.505 77.8756 107.913 80.499 107.913C83.1455 107.913 86.0706 108.238 86.0706 111.476C86.0706 112.405 85.6412 113.914 85.4206 114.784L77.3765 114.773ZM80.4874 112.579C80.5802 112.3 80.7079 111.952 80.7079 111.708C80.7079 111.174 80.3713 110.815 79.7445 110.815C78.6185 110.815 78.3399 111.685 78.0846 112.567L80.4874 112.579ZM95.1479 104.512L90.7137 120.019H84.9911L89.4137 104.512H95.1479ZM97.8408 120.019H92.1066L95.4613 108.261H101.184L97.8408 120.019ZM102.252 104.512L101.532 107.019H95.8095L96.5292 104.512H102.252ZM109.193 105.614L108.415 108.272H110.853L110.11 110.861H107.673L106.372 115.4C106.291 115.678 106.117 116.177 106.117 116.502C106.117 117.431 106.79 117.431 107.568 117.431H108.218L107.475 120.019H102.437C100.754 120.019 99.9999 119.462 99.9999 118.232C99.9999 117.663 100.22 116.874 100.453 116.003L103.459 105.603L109.193 105.614Z" fill="#4D8536"/>
<path d="M118.654 108.271H124.516L115.903 120.843C113.651 124.128 112.572 124.499 108.497 124.499H107L107.604 121.493H108.753C109.925 121.493 110.68 120.97 110.68 120.018L110.656 119.67L109.705 108.271H115.694L114.824 115.991L114.858 116.025L118.654 108.271Z" fill="#4D8536"/>
<path d="M0 159.5C0 153.977 4.47715 149.5 10 149.5H150C155.523 149.5 160 153.977 160 159.5V189.5C160 195.023 155.523 199.5 150 199.5H10C4.47715 199.5 0 195.023 0 189.5V159.5Z" fill="#E9EBF0"/>
<g clip-path="url(#clip1_73_1199)">
<path d="M125.659 165.068C124.883 165.051 123.961 165.218 122.916 165.563C122.76 165.618 122.636 165.704 122.524 165.814C121.462 166.812 120.428 167.869 119.451 168.962L119.376 169.045C119.356 169.069 119.353 169.104 119.368 169.131C119.384 169.158 119.415 169.172 119.446 169.166L119.556 169.143C121.13 168.806 122.72 168.548 124.279 168.377C124.381 168.366 124.487 168.401 124.564 168.471C124.64 168.542 124.685 168.642 124.683 168.747C124.657 170.294 124.712 171.849 124.85 173.369L124.86 173.468C124.863 173.499 124.884 173.523 124.915 173.531C124.92 173.533 124.925 173.534 124.932 173.534C124.955 173.534 124.978 173.524 124.992 173.503L125.05 173.422C125.928 172.168 126.885 170.95 127.89 169.797C128.002 169.669 128.032 169.589 128.053 169.472C128.37 167.447 127.881 165.948 127.444 165.57C127.065 165.24 126.514 165.086 125.659 165.068ZM123.247 169.171L123.151 169.184C121.646 169.391 120.124 169.678 118.624 170.037C118.476 170.078 118.38 170.175 118.359 170.197C117.237 171.541 116.174 172.956 115.199 174.405C115.151 174.479 115.146 174.654 115.146 174.654C115.146 174.654 115.39 176.542 115.748 177.933C114.862 180.482 114.071 183.841 114.071 183.841C114.065 183.862 114.069 183.885 114.082 183.904C114.095 183.922 114.116 183.934 114.139 183.934H114.644C114.676 183.935 114.704 183.915 114.715 183.886L114.75 183.791C115.265 182.387 115.852 181 116.5 179.649C116.651 179.334 116.97 178.699 116.97 178.699C117.022 178.596 117.267 178.127 117.322 178.021L117.331 178.003C118.965 174.921 120.956 172.014 123.248 169.364L123.311 169.291C123.331 169.268 123.335 169.235 123.321 169.208C123.306 169.182 123.276 169.167 123.247 169.171ZM123.94 169.752C123.912 169.741 123.879 169.748 123.86 169.772L123.797 169.845C121.125 172.936 118.879 176.366 117.121 180.041L117.08 180.127C117.066 180.154 117.072 180.187 117.092 180.208C117.106 180.223 117.124 180.231 117.144 180.231C117.153 180.231 117.164 180.23 117.173 180.226L117.262 180.188C118.763 179.566 120.296 179.028 121.819 178.587C121.91 178.561 121.986 178.498 122.029 178.413C122.697 177.112 124.247 174.594 124.247 174.594C124.287 174.537 124.277 174.452 124.277 174.452C124.277 174.452 124.005 171.44 123.988 169.915L123.987 169.819C123.986 169.788 123.968 169.762 123.94 169.752ZM119.977 179.868L119.853 179.911C119.046 180.179 117.852 180.591 116.781 181.084C116.724 181.111 116.686 181.185 116.686 181.185C116.666 181.231 116.642 181.288 116.614 181.353L116.61 181.361C116.49 181.634 116.323 182.045 116.253 182.212L116.198 182.344C116.189 182.365 116.194 182.389 116.211 182.405C116.221 182.414 116.232 182.419 116.247 182.419C116.255 182.419 116.263 182.418 116.271 182.414L116.401 182.352C116.694 182.213 117.065 182.002 117.454 181.817L117.468 181.81C118.207 181.459 119.042 181.063 119.545 180.824C119.545 180.823 119.626 180.78 119.667 180.699L120.043 179.944C120.053 179.925 120.05 179.901 120.036 179.884C120.021 179.868 119.998 179.862 119.977 179.868Z" fill="black"/>
<path d="M50.95 166.906V179.435H52.4771V178.559H52.5119C53.0955 179.229 54.1601 179.693 55.0869 179.693C57.4898 179.693 59.0337 177.805 59.0337 174.887C59.0337 172.055 57.4202 170.081 55.1204 170.081C54.2107 170.081 53.2505 170.528 52.6498 171.214H52.6149V166.906H50.95ZM60.3386 166.906V168.674H62.14V166.906H60.3386ZM73.1079 166.906V179.435H74.7728V173.72C74.7728 172.484 75.6655 171.625 76.9356 171.625C78.1885 171.625 78.9096 172.449 78.9096 173.874V179.435H80.5746V173.463C80.5746 171.386 79.3213 170.081 77.3304 170.081C76.3177 170.081 75.2882 170.561 74.8076 171.248H74.7728V166.906H73.1079ZM106.834 166.906V171.214H106.8C106.199 170.511 105.255 170.081 104.345 170.081C102.045 170.081 100.414 172.089 100.414 174.887C100.414 177.805 101.96 179.693 104.363 179.693C105.289 179.693 106.353 179.229 106.936 178.559H106.971V179.435H108.498V166.906H106.834ZM31.8477 167.422V179.435H33.5634V174.681H36.018C37.9059 174.681 38.593 175.436 38.593 177.53V179.435H40.2579V177.53C40.2579 175.612 39.6724 174.474 38.4016 174.005C39.7043 173.549 40.6005 172.474 40.6005 170.905C40.6005 168.777 39.0208 167.422 36.5493 167.422H31.8477ZM33.5634 168.983H36.3954C38.0259 168.983 38.8673 169.686 38.8673 171.077C38.8673 172.415 38.009 173.154 36.4128 173.154H33.5634V168.983ZM45.5431 170.081C43.0715 170.081 41.3727 172.055 41.3727 174.887C41.3727 177.787 43.0201 179.693 45.5431 179.693C48.0317 179.693 49.6625 177.787 49.6625 174.887C49.6625 172.055 47.9803 170.081 45.5431 170.081ZM68.1131 170.081C67.152 170.081 66.1228 170.545 65.6251 171.214H65.5903V170.339H63.9602V179.435H65.6251V173.72C65.6251 172.433 66.4663 171.625 67.7879 171.625C69.0923 171.625 69.7098 172.382 69.7098 173.961V179.435H71.3921V173.479C71.3921 171.385 70.1212 170.081 68.1131 170.081ZM85.9454 170.081C83.4739 170.081 81.7751 172.055 81.7751 174.887C81.7751 177.787 83.4224 179.693 85.9454 179.693C88.4341 179.693 90.0648 177.787 90.0648 174.887C90.0648 172.055 88.3826 170.081 85.9454 170.081ZM95.2657 170.081C92.7942 170.081 91.0954 172.055 91.0954 174.887C91.0954 177.787 92.7427 179.693 95.2657 179.693C97.7544 179.693 99.3852 177.787 99.3852 174.887C99.3852 172.055 97.7029 170.081 95.2657 170.081ZM60.4069 170.339V179.435H62.0718V170.339H60.4069ZM45.5431 171.609C47.0534 171.609 48.015 172.896 48.015 174.887C48.015 176.895 47.0534 178.182 45.5431 178.182C43.9812 178.182 43.0203 176.912 43.0203 174.887C43.0203 172.862 43.9812 171.609 45.5431 171.609ZM54.8286 171.609C56.4591 171.609 57.3688 172.793 57.3688 174.887C57.3688 176.998 56.4591 178.182 54.8286 178.182C53.5757 178.182 52.6149 177.325 52.6149 176.192V173.755C52.6149 172.536 53.5757 171.609 54.8286 171.609ZM85.9454 171.609C87.4558 171.609 88.4173 172.896 88.4173 174.887C88.4173 176.895 87.4558 178.182 85.9454 178.182C84.3835 178.182 83.4226 176.912 83.4226 174.887C83.4226 172.862 84.3835 171.609 85.9454 171.609ZM95.2657 171.609C96.7761 171.609 97.7377 172.896 97.7377 174.887C97.7377 176.895 96.7761 178.182 95.2657 178.182C93.7038 178.182 92.7429 176.912 92.7429 174.887C92.7429 172.862 93.7038 171.609 95.2657 171.609ZM104.619 171.609C105.872 171.609 106.834 172.536 106.834 173.755V176.192C106.834 177.325 105.872 178.182 104.619 178.182C102.989 178.182 102.079 176.998 102.079 174.887C102.079 172.793 102.989 171.609 104.619 171.609Z" fill="black"/>
</g>
<defs>
<linearGradient id="paint0_linear_73_1199" x1="34.3931" y1="58.2059" x2="27.7944" y2="58.2059" gradientUnits="userSpaceOnUse">
<stop stop-color="#D81222"/>
<stop offset="1" stop-color="#960B1A"/>
</linearGradient>
<clipPath id="clip0_73_1199">
<rect width="105.269" height="16" fill="white" transform="translate(27.3652 46.5)"/>
</clipPath>
<clipPath id="clip1_73_1199">
<rect width="97.5238" height="20" fill="white" transform="translate(31.2383 164.5)"/>
</clipPath>
</defs>
</svg>

