<svg width="1440" height="812" viewBox="0 0 1440 812" fill="none" xmlns="http://www.w3.org/2000/svg">
<path d="M726.044 343.51C703.684 515.732 277.335 841.001 -1115 841.001" stroke="url(#paint0_linear_278_569)" stroke-width="0.75"/>
<path d="M726.045 343.51C710.704 515.732 418.216 841.001 -536.969 841.001" stroke="url(#paint1_linear_278_569)" stroke-width="0.75"/>
<path d="M726.045 343.51C717.106 515.732 546.688 841.001 -9.86328 841.001" stroke="url(#paint2_linear_278_569)" stroke-width="0.75"/>
<path d="M726.047 343.51C722.737 515.732 659.641 841.001 453.582 841.001" stroke="url(#paint3_linear_278_569)" stroke-width="0.75"/>
<path d="M726.043 343.51C748.216 515.732 1171.03 841.001 2551.81 841.001" stroke="url(#paint4_linear_278_569)" stroke-width="0.75"/>
<path d="M726.047 343.51C741.201 515.732 1030.15 841.001 1973.79 841.001" stroke="url(#paint5_linear_278_569)" stroke-width="0.75"/>
<path d="M726.035 343.51C734.788 515.732 901.671 841.001 1446.66 841.001" stroke="url(#paint6_linear_278_569)" stroke-width="0.75"/>
<path d="M726.039 343.51C729.163 515.732 788.72 841.001 983.223 841.001" stroke="url(#paint7_linear_278_569)" stroke-width="0.75"/>
<path d="M726.044 353.49C703.684 181.268 277.335 -144.001 -1115 -144.001" stroke="url(#paint8_linear_278_569)" stroke-width="0.75"/>
<path d="M726.045 353.49C710.704 181.268 418.216 -144.001 -536.969 -144.001" stroke="url(#paint9_linear_278_569)" stroke-width="0.75"/>
<path d="M726.045 353.49C717.106 181.268 546.688 -144.001 -9.86328 -144.001" stroke="url(#paint10_linear_278_569)" stroke-width="0.75"/>
<path d="M726.047 353.49C722.737 181.268 659.641 -144.001 453.582 -144.001" stroke="url(#paint11_linear_278_569)" stroke-width="0.75"/>
<path d="M726.043 353.49C748.216 181.268 1171.03 -144.001 2551.81 -144.001" stroke="url(#paint12_linear_278_569)" stroke-width="0.75"/>
<path d="M726.047 353.49C741.201 181.268 1030.15 -144.001 1973.79 -144.001" stroke="url(#paint13_linear_278_569)" stroke-width="0.75"/>
<path d="M726.035 353.49C734.788 181.268 901.671 -144.001 1446.66 -144.001" stroke="url(#paint14_linear_278_569)" stroke-width="0.75"/>
<path d="M726.039 353.49C729.163 181.268 788.72 -144.001 983.223 -144.001" stroke="url(#paint15_linear_278_569)" stroke-width="0.75"/>
<defs>
<linearGradient id="paint0_linear_278_569" x1="725.135" y1="342.822" x2="-48.9966" y2="993.691" gradientUnits="userSpaceOnUse">
<stop stop-color="#0052FF"/>
<stop offset="0.5" stop-color="#80A9FF"/>
<stop offset="1" stop-color="white"/>
</linearGradient>
<linearGradient id="paint1_linear_278_569" x1="732.04" y1="340.974" x2="255.643" y2="920.977" gradientUnits="userSpaceOnUse">
<stop stop-color="#0052FF"/>
<stop offset="0.5" stop-color="#80A9FF"/>
<stop offset="1" stop-color="white"/>
</linearGradient>
<linearGradient id="paint2_linear_278_569" x1="722.554" y1="346.337" x2="484.554" y2="847.926" gradientUnits="userSpaceOnUse">
<stop stop-color="#0052FF"/>
<stop offset="0.5" stop-color="#80A9FF"/>
<stop offset="1" stop-color="white"/>
</linearGradient>
<linearGradient id="paint3_linear_278_569" x1="730.333" y1="341.657" x2="652.66" y2="796.703" gradientUnits="userSpaceOnUse">
<stop stop-color="#0052FF"/>
<stop offset="0.5" stop-color="#80A9FF"/>
<stop offset="1" stop-color="white"/>
</linearGradient>
<linearGradient id="paint4_linear_278_569" x1="730.924" y1="343.15" x2="1485.26" y2="984.922" gradientUnits="userSpaceOnUse">
<stop stop-color="#0052FF"/>
<stop offset="0.5" stop-color="#80A9FF"/>
<stop offset="1" stop-color="white"/>
</linearGradient>
<linearGradient id="paint5_linear_278_569" x1="722.621" y1="344.298" x2="1183.87" y2="921.174" gradientUnits="userSpaceOnUse">
<stop stop-color="#0052FF"/>
<stop offset="0.5" stop-color="#80A9FF"/>
<stop offset="1" stop-color="white"/>
</linearGradient>
<linearGradient id="paint6_linear_278_569" x1="715.868" y1="348.522" x2="955.326" y2="849.259" gradientUnits="userSpaceOnUse">
<stop stop-color="#0052FF"/>
<stop offset="0.5" stop-color="#80A9FF"/>
<stop offset="1" stop-color="white"/>
</linearGradient>
<linearGradient id="paint7_linear_278_569" x1="723.637" y1="342.795" x2="799.507" y2="796.713" gradientUnits="userSpaceOnUse">
<stop stop-color="#0052FF"/>
<stop offset="0.5" stop-color="#80A9FF"/>
<stop offset="1" stop-color="white"/>
</linearGradient>
<linearGradient id="paint8_linear_278_569" x1="725.135" y1="354.178" x2="-48.9966" y2="-296.691" gradientUnits="userSpaceOnUse">
<stop stop-color="#0052FF"/>
<stop offset="0.5" stop-color="#80A9FF"/>
<stop offset="1" stop-color="white"/>
</linearGradient>
<linearGradient id="paint9_linear_278_569" x1="732.04" y1="356.026" x2="255.643" y2="-223.977" gradientUnits="userSpaceOnUse">
<stop stop-color="#0052FF"/>
<stop offset="0.5" stop-color="#80A9FF"/>
<stop offset="1" stop-color="white"/>
</linearGradient>
<linearGradient id="paint10_linear_278_569" x1="722.554" y1="350.663" x2="484.554" y2="-150.926" gradientUnits="userSpaceOnUse">
<stop stop-color="#0052FF"/>
<stop offset="0.5" stop-color="#80A9FF"/>
<stop offset="1" stop-color="white"/>
</linearGradient>
<linearGradient id="paint11_linear_278_569" x1="730.333" y1="355.343" x2="652.66" y2="-99.7028" gradientUnits="userSpaceOnUse">
<stop stop-color="#0052FF"/>
<stop offset="0.5" stop-color="#80A9FF"/>
<stop offset="1" stop-color="white"/>
</linearGradient>
<linearGradient id="paint12_linear_278_569" x1="730.924" y1="353.85" x2="1485.26" y2="-287.922" gradientUnits="userSpaceOnUse">
<stop stop-color="#0052FF"/>
<stop offset="0.5" stop-color="#80A9FF"/>
<stop offset="1" stop-color="white"/>
</linearGradient>
<linearGradient id="paint13_linear_278_569" x1="722.621" y1="352.702" x2="1183.87" y2="-224.174" gradientUnits="userSpaceOnUse">
<stop stop-color="#0052FF"/>
<stop offset="0.5" stop-color="#80A9FF"/>
<stop offset="1" stop-color="white"/>
</linearGradient>
<linearGradient id="paint14_linear_278_569" x1="715.868" y1="348.478" x2="955.326" y2="-152.259" gradientUnits="userSpaceOnUse">
<stop stop-color="#0052FF"/>
<stop offset="0.5" stop-color="#80A9FF"/>
<stop offset="1" stop-color="white"/>
</linearGradient>
<linearGradient id="paint15_linear_278_569" x1="723.637" y1="354.205" x2="799.507" y2="-99.7127" gradientUnits="userSpaceOnUse">
<stop stop-color="#0052FF"/>
<stop offset="0.5" stop-color="#80A9FF"/>
<stop offset="1" stop-color="white"/>
</linearGradient>
</defs>
</svg>
